<svg width="160" height="35" viewBox="0 0 160 35" fill="none" xmlns="http://www.w3.org/2000/svg">
<path fill-rule="evenodd" clip-rule="evenodd" d="M3.06403 5.90073L9.57735 4.05063C8.85765 2.6919 7.28845 1.93441 5.72231 2.30467C4.05196 2.69956 2.95295 4.243 3.06403 5.90073ZM1.97194 6.21094C1.69946 3.93036 3.17701 1.75923 5.46545 1.21821C7.61721 0.709504 9.77331 1.81046 10.6696 3.74037L14.1428 2.75383C14.3597 2.69222 14.5563 2.89991 14.483 3.11312L10.4968 14.6978C10.3037 15.2592 9.85052 15.7267 9.26196 15.6486C8.41266 15.5358 7.27779 14.9862 6.51407 13.3823C6.00445 12.3121 5.66233 11.335 5.37896 10.5257C4.88636 9.11876 4.57131 8.21895 3.8626 8.21895C2.96947 8.21895 3.30439 9.80053 3.5835 10.5913C4.28126 12.9172 6.73034 17.4839 9.633 17.2607L7.21183 24.8255C5.20244 31.2556 11.423 30.9988 12.1715 30.9679C12.2028 30.9667 12.2245 30.9658 12.2357 30.9658L5.23245 32.9818C4.07538 33.3149 2.89533 32.5323 2.75212 31.3368L0.0140086 8.47946C-0.100256 7.5256 0.495898 6.63021 1.42002 6.36772L1.97194 6.21094Z" fill="white"/>
<path fill-rule="evenodd" clip-rule="evenodd" d="M24.6783 1.97648L28.254 2.66259C29.9114 2.98061 31.0874 4.3794 31.1917 5.9885L20.7238 3.96711C21.4194 2.51801 23.0254 1.65932 24.6783 1.97648ZM19.5994 3.74997C20.4337 1.69497 22.6276 0.446212 24.8887 0.880071L28.4644 1.56619C30.7308 2.00106 32.3088 3.9814 32.3159 6.20557L34.5956 6.64579C35.541 6.82836 36.2125 7.67259 36.1776 8.63488L35.3453 31.5827C35.3014 32.7922 34.1797 33.6712 32.9948 33.4246L9.90877 28.6199C8.76807 28.3825 8.08741 27.2058 8.45032 26.0986L15.467 4.69178C15.7735 3.75664 16.7277 3.19544 17.694 3.38203L19.5994 3.74997ZM21.8623 21.9796L23.3251 22.2841C26.796 23.0064 30.1953 20.7782 30.9177 17.3073L31.5969 14.0435C31.7487 13.3138 31.7867 12.4707 31.0441 12.4068C30.5381 12.3632 30.0936 13.0151 29.9901 13.5124L29.3479 16.5979C28.7826 19.3143 26.1223 21.0581 23.4059 20.4928L22.3455 20.2721C19.6291 19.7068 17.8852 17.0467 18.4505 14.3303L19.0862 11.2758C19.1781 10.8345 19.1603 10.4023 18.773 10.1719C18.2516 9.86183 17.703 10.4587 17.5795 11.0525L16.8855 14.387C16.1632 17.858 18.3914 21.2573 21.8623 21.9796Z" fill="#FD6C01"/>
<path d="M58.9514 13.0342C58.8204 12.579 58.6364 12.1767 58.3994 11.8275C58.1624 11.472 57.8724 11.1726 57.5294 10.9294C57.1927 10.68 56.806 10.4897 56.3694 10.3588C55.9391 10.2278 55.462 10.1623 54.9382 10.1623C53.959 10.1623 53.0984 10.4055 52.3562 10.892C51.6203 11.3784 51.0466 12.0863 50.6349 13.0155C50.2233 13.9385 50.0175 15.0674 50.0175 16.402C50.0175 17.7366 50.2202 18.8716 50.6256 19.8071C51.031 20.7426 51.6047 21.4567 52.3469 21.9494C53.089 22.4358 53.9653 22.679 54.9756 22.679C55.8923 22.679 56.675 22.5169 57.3236 22.1926C57.9785 21.8621 58.4774 21.3974 58.8204 20.7987C59.1696 20.2 59.3443 19.4922 59.3443 18.6752L60.1675 18.7968H55.2282V15.7471H63.2452V18.1607C63.2452 19.8445 62.8897 21.2914 62.1788 22.5013C61.4678 23.705 60.4887 24.6342 59.2414 25.289C57.9941 25.9376 56.5659 26.2619 54.9569 26.2619C53.1607 26.2619 51.5829 25.8659 50.2233 25.0739C48.8638 24.2756 47.8036 23.1437 47.0427 21.6781C46.2881 20.2063 45.9108 18.46 45.9108 16.4394C45.9108 14.8865 46.1353 13.502 46.5843 12.2859C47.0396 11.0635 47.6757 10.0282 48.4927 9.18007C49.3097 8.3319 50.2608 7.68642 51.3459 7.24362C52.4311 6.80083 53.6067 6.57943 54.8727 6.57943C55.9578 6.57943 56.9681 6.73846 57.9036 7.05653C58.8391 7.36835 59.6686 7.81115 60.392 8.38491C61.1217 8.95867 61.7173 9.64157 62.1788 10.4336C62.6403 11.2194 62.9365 12.0863 63.0675 13.0342H58.9514ZM74.9006 19.882V11.631H78.8858V26H75.0597V23.39H74.91C74.5857 24.2319 74.0462 24.9086 73.2916 25.42C72.5432 25.9314 71.6296 26.1871 70.5507 26.1871C69.5902 26.1871 68.7452 25.9688 68.0155 25.5323C67.2858 25.0957 66.7152 24.4752 66.3036 23.6707C65.8982 22.8661 65.6924 21.9026 65.6862 20.78V11.631H69.6713V20.0691C69.6775 20.9172 69.9052 21.5877 70.3542 22.0803C70.8032 22.573 71.4051 22.8194 72.1597 22.8194C72.6399 22.8194 73.0889 22.7102 73.5068 22.4919C73.9246 22.2674 74.2614 21.9369 74.5171 21.5003C74.779 21.0638 74.9069 20.5243 74.9006 19.882ZM81.5466 26V11.631H85.4101V14.1381H85.5598C85.8217 13.2463 86.2614 12.5727 86.8788 12.1175C87.4962 11.656 88.2072 11.4252 89.0117 11.4252C89.2113 11.4252 89.4264 11.4377 89.6572 11.4626C89.8879 11.4876 90.0906 11.5219 90.2653 11.5655V15.1017C90.0782 15.0455 89.8193 14.9956 89.4888 14.952C89.1583 14.9083 88.8558 14.8865 88.5814 14.8865C87.9952 14.8865 87.4713 15.0143 87.0098 15.27C86.5545 15.5195 86.1928 15.8687 85.9246 16.3178C85.6627 16.7668 85.5317 17.2844 85.5317 17.8707V26H81.5466ZM101.013 19.882V11.631H104.998V26H101.172V23.39H101.023C100.698 24.2319 100.159 24.9086 99.4042 25.42C98.6559 25.9314 97.7422 26.1871 96.6633 26.1871C95.7029 26.1871 94.8578 25.9688 94.1281 25.5323C93.3985 25.0957 92.8278 24.4752 92.4162 23.6707C92.0108 22.8661 91.805 21.9026 91.7988 20.78V11.631H95.7839V20.0691C95.7902 20.9172 96.0178 21.5877 96.4668 22.0803C96.9159 22.573 97.5177 22.8194 98.2723 22.8194C98.7525 22.8194 99.2016 22.7102 99.6194 22.4919C100.037 22.2674 100.374 21.9369 100.63 21.5003C100.892 21.0638 101.02 20.5243 101.013 19.882Z" fill="#FE5722"/>
<path d="M107.734 26V6.84137H111.785V22.6603H119.998V26H107.734ZM128.571 26.2806C127.118 26.2806 125.861 25.9719 124.801 25.3545C123.747 24.7309 122.933 23.864 122.36 22.7539C121.786 21.6375 121.499 20.3435 121.499 18.8716C121.499 17.3873 121.786 16.0901 122.36 14.98C122.933 13.8637 123.747 12.9968 124.801 12.3794C125.861 11.7558 127.118 11.4439 128.571 11.4439C130.024 11.4439 131.278 11.7558 132.332 12.3794C133.392 12.9968 134.209 13.8637 134.783 14.98C135.357 16.0901 135.643 17.3873 135.643 18.8716C135.643 20.3435 135.357 21.6375 134.783 22.7539C134.209 23.864 133.392 24.7309 132.332 25.3545C131.278 25.9719 130.024 26.2806 128.571 26.2806ZM128.59 23.1936C129.251 23.1936 129.803 23.0065 130.246 22.6323C130.689 22.2518 131.022 21.7342 131.247 21.0794C131.477 20.4245 131.593 19.6793 131.593 18.8436C131.593 18.0079 131.477 17.2626 131.247 16.6078C131.022 15.9529 130.689 15.4353 130.246 15.0549C129.803 14.6745 129.251 14.4842 128.59 14.4842C127.923 14.4842 127.361 14.6745 126.906 15.0549C126.457 15.4353 126.117 15.9529 125.886 16.6078C125.662 17.2626 125.55 18.0079 125.55 18.8436C125.55 19.6793 125.662 20.4245 125.886 21.0794C126.117 21.7342 126.457 22.2518 126.906 22.6323C127.361 23.0065 127.923 23.1936 128.59 23.1936ZM137.708 11.631H141.693V26.711C141.693 27.8211 141.475 28.7191 141.038 29.4051C140.602 30.0912 139.975 30.5932 139.158 30.9113C138.347 31.2293 137.377 31.3884 136.248 31.3884C136.111 31.3884 135.98 31.3852 135.856 31.379C135.725 31.379 135.587 31.3759 135.444 31.3697V28.2545C135.55 28.2607 135.644 28.2639 135.725 28.2639C135.799 28.2701 135.881 28.2732 135.968 28.2732C136.61 28.2732 137.059 28.136 137.315 27.8616C137.577 27.5934 137.708 27.1881 137.708 26.6455V11.631ZM139.691 9.77877C139.105 9.77877 138.6 9.58232 138.176 9.18942C137.752 8.79028 137.539 8.31319 137.539 7.75814C137.539 7.20932 137.752 6.73846 138.176 6.34556C138.6 5.94642 139.105 5.74685 139.691 5.74685C140.29 5.74685 140.798 5.94642 141.216 6.34556C141.64 6.73846 141.852 7.20932 141.852 7.75814C141.852 8.31319 141.64 8.79028 141.216 9.18942C140.798 9.58232 140.29 9.77877 139.691 9.77877ZM148.456 26.2713C147.539 26.2713 146.722 26.1123 146.005 25.7942C145.288 25.4699 144.72 24.9928 144.302 24.3629C143.891 23.7268 143.685 22.9347 143.685 21.9868C143.685 21.1885 143.831 20.5181 144.125 19.9755C144.418 19.4329 144.817 18.9964 145.322 18.6658C145.827 18.3353 146.401 18.0858 147.043 17.9175C147.692 17.7491 148.372 17.6306 149.083 17.562C149.918 17.4747 150.592 17.3936 151.103 17.3187C151.615 17.2377 151.986 17.1192 152.216 16.9633C152.447 16.8073 152.563 16.5766 152.563 16.271V16.2149C152.563 15.6224 152.376 15.164 152.001 14.8397C151.633 14.5154 151.11 14.3533 150.43 14.3533C149.713 14.3533 149.142 14.5123 148.718 14.8304C148.294 15.1422 148.013 15.5351 147.876 16.0091L144.19 15.7097C144.377 14.8366 144.745 14.082 145.294 13.4459C145.843 12.8035 146.551 12.3108 147.417 11.9678C148.291 11.6186 149.301 11.4439 150.448 11.4439C151.247 11.4439 152.011 11.5375 152.74 11.7246C153.476 11.9117 154.128 12.2017 154.696 12.5946C155.269 12.9875 155.721 13.4926 156.052 14.11C156.382 14.7212 156.548 15.454 156.548 16.3084V26H152.768V24.0074H152.656C152.425 24.4565 152.117 24.8525 151.73 25.1955C151.343 25.5323 150.879 25.7973 150.336 25.9906C149.794 26.1777 149.167 26.2713 148.456 26.2713ZM149.597 23.521C150.183 23.521 150.701 23.4056 151.15 23.1748C151.599 22.9379 151.951 22.6198 152.207 22.2207C152.463 21.8215 152.591 21.3694 152.591 20.8642V19.3394C152.466 19.4205 152.294 19.4953 152.076 19.5639C151.864 19.6263 151.624 19.6855 151.356 19.7416C151.088 19.7915 150.82 19.8383 150.551 19.882C150.283 19.9194 150.04 19.9537 149.822 19.9849C149.354 20.0535 148.945 20.1626 148.596 20.3123C148.247 20.462 147.976 20.6646 147.782 20.9203C147.589 21.1698 147.492 21.4816 147.492 21.8558C147.492 22.3984 147.689 22.8131 148.082 23.1C148.481 23.3807 148.986 23.521 149.597 23.521Z" fill="white"/>
<path d="M68.865 31.0668H69.253L69.7416 31.714L69.8237 31.8222L70.4243 32.6186H70.0363L69.5962 32.0311L69.5178 31.9266L68.865 31.0668ZM70.566 30.3506C70.566 30.7485 70.4951 31.0948 70.3534 31.3895C70.2116 31.6829 70.0164 31.9105 69.7677 32.0721C69.5203 32.2325 69.2356 32.3127 68.9135 32.3127C68.5915 32.3127 68.3061 32.2325 68.0575 32.0721C67.81 31.9105 67.6154 31.6829 67.4737 31.3895C67.3332 31.0948 67.2629 30.7485 67.2629 30.3506C67.2629 29.9528 67.3332 29.6071 67.4737 29.3137C67.6154 29.019 67.8106 28.7914 68.0593 28.631C68.308 28.4694 68.5927 28.3886 68.9135 28.3886C69.2356 28.3886 69.5203 28.4694 69.7677 28.631C70.0164 28.7914 70.2116 29.019 70.3534 29.3137C70.4951 29.6071 70.566 29.9528 70.566 30.3506ZM70.2266 30.3506C70.2266 30.0087 70.1694 29.7159 70.055 29.4722C69.9406 29.2272 69.7845 29.0401 69.5868 28.9108C69.3891 28.7815 69.1647 28.7168 68.9135 28.7168C68.6636 28.7168 68.4398 28.7815 68.2421 28.9108C68.0444 29.0401 67.8877 29.2266 67.7721 29.4703C67.6577 29.714 67.6005 30.0075 67.6005 30.3506C67.6005 30.6926 67.6577 30.9854 67.7721 31.2291C67.8865 31.4728 68.0425 31.6599 68.2402 31.7905C68.4379 31.9198 68.6624 31.9845 68.9135 31.9845C69.1647 31.9845 69.3891 31.9198 69.5868 31.7905C69.7858 31.6612 69.9424 31.4747 70.0568 31.231C70.1712 30.986 70.2278 30.6926 70.2266 30.3506ZM73.8503 28.4408H74.1991V30.9699C74.1991 31.2297 74.1381 31.4622 74.0163 31.6674C73.8944 31.8713 73.7247 32.0323 73.5071 32.1505C73.2908 32.2673 73.039 32.3258 72.7518 32.3258C72.4658 32.3258 72.214 32.2667 71.9964 32.1486C71.7788 32.0305 71.6091 31.8695 71.4872 31.6655C71.3654 31.4616 71.3044 31.2297 71.3044 30.9699V28.4408H71.6532V30.9456C71.6532 31.1483 71.6986 31.3292 71.7894 31.4883C71.8801 31.6463 72.0076 31.7706 72.1717 31.8614C72.3371 31.9521 72.5304 31.9975 72.7518 31.9975C72.9731 31.9975 73.1664 31.9521 73.3318 31.8614C73.4972 31.7706 73.6246 31.6463 73.7141 31.4883C73.8049 31.3292 73.8503 31.1483 73.8503 30.9456V28.4408ZM75.1133 32.2605H74.7477L76.1372 28.4408H76.5103L77.8998 32.2605H77.5342L76.3368 28.894H76.3107L75.1133 32.2605ZM75.3763 30.7964H77.2712V31.1097H75.3763V30.7964ZM78.4494 32.2605V28.4408H78.7981V31.9472H80.6185V32.2605H78.4494ZM81.6474 28.4408V32.2605H81.2986V28.4408H81.6474ZM83.677 32.2605H82.5579V28.4408H83.7441C84.1084 28.4408 84.4199 28.5166 84.6785 28.6683C84.9384 28.82 85.1373 29.0376 85.2753 29.3211C85.4134 29.6046 85.4824 29.9447 85.4824 30.3413C85.4824 30.7417 85.4115 31.0855 85.2697 31.3727C85.1292 31.6587 84.9241 31.8782 84.6543 32.0311C84.3857 32.184 84.0599 32.2605 83.677 32.2605ZM82.9067 31.9472H83.6564C83.9847 31.9472 84.2595 31.8825 84.4808 31.7532C84.7021 31.6239 84.8681 31.4392 84.9788 31.1993C85.0894 30.9593 85.1448 30.6733 85.1448 30.3413C85.1435 30.0118 85.0888 29.7283 84.9807 29.4908C84.8737 29.2533 84.7146 29.0712 84.5032 28.9444C84.2931 28.8175 84.0332 28.7541 83.7236 28.7541H82.9067V31.9472ZM86.0488 32.2605H85.6832L87.0727 28.4408H87.4457L88.8352 32.2605H88.4696L87.2723 28.894H87.2461L86.0488 32.2605ZM86.3117 30.7964H88.2067V31.1097H86.3117V30.7964ZM90.5039 32.2605H89.3848V28.4408H90.571C90.9353 28.4408 91.2468 28.5166 91.5054 28.6683C91.7653 28.82 91.9642 29.0376 92.1022 29.3211C92.2403 29.6046 92.3093 29.9447 92.3093 30.3413C92.3093 30.7417 92.2384 31.0855 92.0967 31.3727C91.9561 31.6587 91.751 31.8782 91.4812 32.0311C91.2126 32.184 90.8868 32.2605 90.5039 32.2605ZM89.7336 31.9472H90.4833C90.8116 31.9472 91.0864 31.8825 91.3077 31.7532C91.529 31.6239 91.695 31.4392 91.8057 31.1993C91.9164 30.9593 91.9717 30.6733 91.9717 30.3413C91.9704 30.0118 91.9157 29.7283 91.8076 29.4908C91.7006 29.2533 91.5415 29.0712 91.3301 28.9444C91.12 28.8175 90.8601 28.7541 90.5505 28.7541H89.7336V31.9472ZM93.0496 32.2605V28.4408H95.2653V28.7541H93.3984V30.1921H95.1478V30.5054H93.3984V31.9472H95.3026V32.2605H93.0496ZM97.4351 32.2605V28.4408H99.6508V28.7541H97.7839V30.1921H99.5333V30.5054H97.7839V31.9472H99.6881V32.2605H97.4351ZM102.94 32.2605H101.821V28.4408H103.007C103.371 28.4408 103.683 28.5166 103.941 28.6683C104.201 28.82 104.4 29.0376 104.538 29.3211C104.676 29.6046 104.745 29.9447 104.745 30.3413C104.745 30.7417 104.674 31.0855 104.532 31.3727C104.392 31.6587 104.187 31.8782 103.917 32.0311C103.648 32.184 103.323 32.2605 102.94 32.2605ZM102.169 31.9472H102.919C103.247 31.9472 103.522 31.8825 103.744 31.7532C103.965 31.6239 104.131 31.4392 104.241 31.1993C104.352 30.9593 104.407 30.6733 104.407 30.3413C104.406 30.0118 104.352 29.7283 104.243 29.4908C104.136 29.2533 103.977 29.0712 103.766 28.9444C103.556 28.8175 103.296 28.7541 102.986 28.7541H102.169V31.9472ZM105.834 28.4408V32.2605H105.485V28.4408H105.834ZM106.75 28.4408L107.944 31.8073H107.977L109.171 28.4408H109.537L108.147 32.2605H107.774L106.385 28.4408H106.75ZM110.086 32.2605V28.4408H112.302V28.7541H110.435V30.1921H112.185V30.5054H110.435V31.9472H112.339V32.2605H110.086ZM113.1 32.2605V28.4408H114.333C114.604 28.4408 114.83 28.4899 115.011 28.5881C115.194 28.6851 115.332 28.82 115.424 28.9929C115.517 29.1644 115.563 29.3615 115.563 29.5841C115.563 29.8067 115.517 30.0031 115.424 30.1735C115.332 30.3438 115.195 30.4768 115.013 30.5726C114.832 30.6683 114.607 30.7162 114.338 30.7162H113.288V30.3973H114.329C114.528 30.3973 114.693 30.3643 114.825 30.2984C114.958 30.2325 115.057 30.1386 115.121 30.0168C115.187 29.8949 115.22 29.7507 115.22 29.5841C115.22 29.4175 115.187 29.272 115.121 29.1477C115.056 29.0221 114.956 28.9251 114.823 28.8567C114.691 28.7883 114.525 28.7541 114.323 28.7541H113.448V32.2605H113.1ZM114.784 30.5372L115.724 32.2605H115.321L114.39 30.5372H114.784ZM118.382 29.3957C118.361 29.1831 118.267 29.014 118.1 28.8884C117.934 28.7628 117.724 28.7 117.472 28.7C117.294 28.7 117.137 28.7305 117.002 28.7914C116.868 28.8524 116.762 28.9369 116.685 29.0451C116.609 29.152 116.571 29.2739 116.571 29.4106C116.571 29.5114 116.593 29.5996 116.636 29.6755C116.68 29.7513 116.738 29.8166 116.812 29.8713C116.886 29.9248 116.968 29.9708 117.058 30.0093C117.149 30.0479 117.24 30.0802 117.332 30.1063L117.735 30.222C117.857 30.2555 117.978 30.2984 118.1 30.3506C118.222 30.4029 118.333 30.4688 118.434 30.5483C118.536 30.6267 118.618 30.723 118.679 30.8374C118.741 30.9506 118.772 31.0867 118.772 31.2459C118.772 31.4498 118.719 31.6332 118.613 31.7961C118.508 31.959 118.356 32.0883 118.158 32.184C117.96 32.2785 117.724 32.3258 117.448 32.3258C117.188 32.3258 116.962 32.2829 116.771 32.1971C116.579 32.11 116.429 31.9901 116.319 31.8371C116.21 31.6842 116.148 31.507 116.135 31.3056H116.493C116.505 31.456 116.555 31.5835 116.642 31.6879C116.729 31.7924 116.842 31.8719 116.981 31.9266C117.121 31.9801 117.276 32.0068 117.448 32.0068C117.638 32.0068 117.807 31.9751 117.955 31.9117C118.104 31.8471 118.221 31.7575 118.305 31.6432C118.391 31.5275 118.434 31.3932 118.434 31.2403C118.434 31.111 118.401 31.0028 118.333 30.9158C118.266 30.8275 118.172 30.7535 118.052 30.6938C117.932 30.6341 117.794 30.5813 117.636 30.5353L117.179 30.401C116.879 30.3115 116.647 30.1878 116.481 30.0298C116.316 29.8719 116.233 29.6705 116.233 29.4256C116.233 29.2204 116.288 29.0401 116.398 28.8847C116.508 28.728 116.657 28.6062 116.845 28.5191C117.034 28.4308 117.246 28.3867 117.481 28.3867C117.719 28.3867 117.929 28.4302 118.112 28.5173C118.294 28.6043 118.439 28.7243 118.546 28.8772C118.654 29.0289 118.712 29.2017 118.72 29.3957H118.382ZM119.855 28.4408V32.2605H119.506V28.4408H119.855ZM121.884 32.2605H120.765V28.4408H121.951C122.316 28.4408 122.627 28.5166 122.886 28.6683C123.146 28.82 123.345 29.0376 123.483 29.3211C123.621 29.6046 123.69 29.9447 123.69 30.3413C123.69 30.7417 123.619 31.0855 123.477 31.3727C123.337 31.6587 123.131 31.8782 122.862 32.0311C122.593 32.184 122.267 32.2605 121.884 32.2605ZM121.114 31.9472H121.864C122.192 31.9472 122.467 31.8825 122.688 31.7532C122.91 31.6239 123.076 31.4392 123.186 31.1993C123.297 30.9593 123.352 30.6733 123.352 30.3413C123.351 30.0118 123.296 29.7283 123.188 29.4908C123.081 29.2533 122.922 29.0712 122.711 28.9444C122.5 28.8175 122.241 28.7541 121.931 28.7541H121.114V31.9472ZM124.256 32.2605H123.891L125.28 28.4408H125.653L127.043 32.2605H126.677L125.48 28.894H125.454L124.256 32.2605ZM124.519 30.7964H126.414V31.1097H124.519V30.7964ZM128.711 32.2605H127.592V28.4408H128.778C129.143 28.4408 129.454 28.5166 129.713 28.6683C129.973 28.82 130.172 29.0376 130.31 29.3211C130.448 29.6046 130.517 29.9447 130.517 30.3413C130.517 30.7417 130.446 31.0855 130.304 31.3727C130.164 31.6587 129.958 31.8782 129.689 32.0311C129.42 32.184 129.094 32.2605 128.711 32.2605ZM127.941 31.9472H128.691C129.019 31.9472 129.294 31.8825 129.515 31.7532C129.736 31.6239 129.902 31.4392 130.013 31.1993C130.124 30.9593 130.179 30.6733 130.179 30.3413C130.178 30.0118 130.123 29.7283 130.015 29.4908C129.908 29.2533 129.749 29.0712 129.537 28.9444C129.327 28.8175 129.067 28.7541 128.758 28.7541H127.941V31.9472ZM131.257 32.2605V28.4408H133.473V28.7541H131.606V30.1921H133.355V30.5054H131.606V31.9472H133.51V32.2605H131.257Z" fill="white"/>
</svg>
